<?xml version="1.0" encoding="UTF-8" standalone="no"?>
<!-- Created with Inkscape (http://www.inkscape.org/) -->

<svg
   xmlns:dc="http://purl.org/dc/elements/1.1/"
   xmlns:cc="http://creativecommons.org/ns#"
   xmlns:rdf="http://www.w3.org/1999/02/22-rdf-syntax-ns#"
   xmlns:svg="http://www.w3.org/2000/svg"
   xmlns="http://www.w3.org/2000/svg"
   xmlns:sodipodi="http://sodipodi.sourceforge.net/DTD/sodipodi-0.dtd"
   xmlns:inkscape="http://www.inkscape.org/namespaces/inkscape"
   width="381.168mm"
   height="126.30281mm"
   viewBox="0 0 1350.5953 447.52964"
   id="svg2"
   version="1.1"
   inkscape:version="0.91 r13725"
   inkscape:export-xdpi="199.97861"
   inkscape:export-ydpi="199.97861">
  <defs
     id="defs4">
    <filter
       inkscape:label="Button"
       inkscape:menu="Bevels"
       inkscape:menu-tooltip="Soft bevel, slightly depressed middle"
       style="color-interpolation-filters:sRGB;"
       id="filter4969">
      <feGaussianBlur
         stdDeviation="2.3"
         in="SourceAlpha"
         result="result0"
         id="feGaussianBlur4971" />
      <feMorphology
         in="SourceAlpha"
         radius="6.6"
         result="result1"
         id="feMorphology4973" />
      <feGaussianBlur
         stdDeviation="8.9"
         in="result1"
         id="feGaussianBlur4975" />
      <feColorMatrix
         values="1 0 0 0 0 0 1 0 0 0 0 0 1 0 0 0 0 0 0.3 0"
         result="result91"
         id="feColorMatrix4977" />
      <feComposite
         in="result0"
         operator="out"
         result="result2"
         in2="result91"
         id="feComposite4979" />
      <feGaussianBlur
         stdDeviation="1.7"
         result="result4"
         id="feGaussianBlur4981" />
      <feDiffuseLighting
         surfaceScale="10"
         id="feDiffuseLighting4983">
        <feDistantLight
           azimuth="225"
           elevation="45"
           id="feDistantLight4985" />
      </feDiffuseLighting>
      <feBlend
         in2="SourceGraphic"
         mode="multiply"
         id="feBlend4987" />
      <feComposite
         in2="SourceAlpha"
         operator="in"
         result="result3"
         id="feComposite4989" />
      <feSpecularLighting
         in="result4"
         surfaceScale="5"
         specularExponent="17.9"
         id="feSpecularLighting4991">
        <feDistantLight
           azimuth="225"
           elevation="45"
           id="feDistantLight4993" />
      </feSpecularLighting>
      <feComposite
         in2="result3"
         operator="atop"
         id="feComposite4995" />
    </filter>
  </defs>
  <sodipodi:namedview
     id="base"
     pagecolor="#ffffff"
     bordercolor="#666666"
     borderopacity="1.0"
     inkscape:pageopacity="0.0"
     inkscape:pageshadow="2"
     inkscape:zoom="0.7"
     inkscape:cx="564.27655"
     inkscape:cy="459.3554"
     inkscape:document-units="px"
     inkscape:current-layer="g4953"
     showgrid="false"
     inkscape:window-width="1920"
     inkscape:window-height="1017"
     inkscape:window-x="-8"
     inkscape:window-y="-8"
     inkscape:window-maximized="1"
     showguides="false"
     fit-margin-top="15"
     fit-margin-left="15"
     fit-margin-right="15"
     fit-margin-bottom="5" />
  <metadata
     id="metadata7">
    <rdf:RDF>
      <cc:Work
         rdf:about="">
        <dc:format>image/svg+xml</dc:format>
        <dc:type
           rdf:resource="http://purl.org/dc/dcmitype/StillImage" />
        <dc:title></dc:title>
      </cc:Work>
    </rdf:RDF>
  </metadata>
  <g
     inkscape:label="Layer 1"
     inkscape:groupmode="layer"
     id="layer1"
     transform="translate(21.991815,11.406791)">
    <g
       id="g4953"
       style="filter:url(#filter4969)">
      <g
         transform="matrix(2.4458413,0,0,2.4458413,36.619383,-87.241922)"
         style="font-style:normal;font-variant:normal;font-weight:normal;font-stretch:normal;font-size:50px;line-height:125%;font-family:'Javanese Text';-inkscape-font-specification:'Javanese Text';text-align:start;letter-spacing:0px;word-spacing:0px;text-anchor:start;fill:#000000;fill-opacity:1;stroke:none;stroke-width:1px;stroke-linecap:butt;stroke-linejoin:miter;stroke-opacity:1"
         id="flowRoot4136">
        <path
           d="m 99.802734,148.62676 q -2.075195,1.29394 -4.272461,1.85547 -2.197265,0.56152 -4.077148,0.56152 -5.371094,0 -8.569336,-3.05176 -3.198242,-3.07617 -3.198242,-8.52051 0,-5.41992 3.051758,-8.8623 3.076172,-3.44238 8.203125,-3.44238 4.296875,0 6.689453,2.58789 2.392577,2.56347 2.392577,7.10449 0,0.68359 -0.07324,1.3916 l -15.478516,0 q 0,5.24902 2.46582,7.51953 2.465821,2.2461 7.714844,2.2461 2.34375,0 5.004883,-0.43946 l 0.146484,1.04981 z m -4.638672,-12.40235 0,-0.73242 q 0,-3.46679 -1.123046,-4.95605 -1.098633,-1.48926 -3.295899,-1.48926 -2.905273,0 -4.443359,2.09961 -1.538086,2.09961 -1.733399,5.07812 l 10.595703,0 z"
           style="font-style:normal;font-variant:normal;font-weight:normal;font-stretch:normal;font-family:Constantia;-inkscape-font-specification:Constantia;word-spacing:0px;fill:#000000"
           id="path5902" />
        <path
           d="m 103.07422,116.10723 -0.12207,-0.80567 q 4.32129,-0.83008 7.95898,-1.7334 l 0.21973,0.19532 q -0.14648,3.97949 -0.14648,11.05957 l 0,15.89355 q 0,4.37012 0.0488,7.03125 0.0733,0.70801 0.6836,0.87891 l 2.66113,0.80566 0.0732,1.00098 q -3.2959,-0.0732 -5.68847,-0.0732 -2.39258,0 -5.66407,0.0732 l -0.0977,-1.00098 2.75879,-0.80566 q 0.61035,-0.19531 0.65918,-0.78125 0.0488,-2.75879 0.0488,-6.15235 l 0,-10.03418 q 0,-9.08203 -0.0977,-14.57519 l -3.2959,-0.97656 z"
           style="font-style:normal;font-variant:normal;font-weight:normal;font-stretch:normal;font-family:Constantia;-inkscape-font-specification:Constantia;word-spacing:0px;fill:#000000"
           id="path5904" />
        <path
           d="m 130.83301,139.30059 q -5.34668,0 -7.29981,1.0498 -1.95312,1.04981 -1.95312,3.54004 0,2.31934 1.29394,3.2959 1.29395,0.95215 3.51563,0.95215 2.51465,0 4.39453,-0.8545 l 0.0488,-7.98339 z m -11.84082,-10.0586 q 4.76074,-2.07519 8.42285,-2.07519 3.73535,0 5.81055,1.95312 2.09961,1.95313 2.07519,5.63965 l -0.12207,10.15625 q -0.0244,1.24512 0.0488,2.00195 0.0977,0.75684 0.43945,1.17188 0.36621,0.39062 1.07422,0.56152 0.70801,0.14649 1.9043,0.1709 l 0.12207,0.95215 q -1.04981,0.41504 -2.56348,0.83008 -1.51367,0.41504 -2.05078,0.41504 -2.36816,0 -3.24707,-2.44141 -3.41797,2.46582 -6.44531,2.46582 -3.39356,0 -5.46875,-1.66016 -2.05078,-1.68457 -2.05078,-4.73632 0,-3.75977 3.34472,-5.542 3.36914,-1.78222 10.54688,-1.78222 l 0.0244,-1.9043 q 0.0244,-2.73438 -1.3916,-4.05273 -1.41602,-1.31836 -4.3457,-1.31836 -2.22168,0 -5.56641,0.83007 l -0.56152,-1.63574 z"
           style="font-style:normal;font-variant:normal;font-weight:normal;font-stretch:normal;font-family:Constantia;-inkscape-font-specification:Constantia;word-spacing:0px;fill:#000000"
           id="path5906" />
        <path
           d="m 137.96191,127.72832 q 3.07618,0.0732 5.46875,0.0732 1.63575,0 5.22461,-0.0732 l 0.0977,1.00098 -2.85645,0.78125 q 0.90332,2.56347 2.09961,5.66406 1.19629,3.07617 2.53907,6.4209 0.56152,1.3916 1.2207,3.19824 0.68359,-1.83105 1.46484,-3.73535 1.14746,-2.83203 2.22168,-5.56641 1.07422,-2.75879 2.22168,-5.98144 l -2.7832,-0.78125 -0.0977,-1.00098 q 1.80664,0.0732 4.22364,0.0732 2.17285,0 4.22363,-0.0732 l 0.12207,1.00098 -2.27051,0.63476 q -0.75683,0.24414 -1.09863,1.00098 -0.90332,2.07519 -1.95313,4.54101 -3.22265,7.56836 -4.88281,12.40235 -1.12305,3.27148 -2.02637,6.68945 -0.90332,3.44238 -1.3916,5.9082 -0.21972,1.19629 -0.90332,1.80665 -0.65918,0.63476 -3.125,0.63476 -2.51465,0 -4.88281,-0.1709 l -0.12207,-0.95215 q 2.68555,-0.41504 3.97949,-1.73339 1.5625,-1.68457 4.83399,-8.95997 l 0.19531,-0.46386 -0.3418,-0.0977 q -4.46777,-11.13281 -8.08105,-19.58008 -0.31739,-0.73242 -1.12305,-1.00097 l -2.14844,-0.65918 -0.0488,-1.00098 z"
           style="font-style:normal;font-variant:normal;font-weight:normal;font-stretch:normal;font-family:Constantia;-inkscape-font-specification:Constantia;word-spacing:0px;fill:#000000"
           id="path5908" />
        <path
           d="m 183.78711,148.62676 q -2.0752,1.29394 -4.27246,1.85547 -2.19727,0.56152 -4.07715,0.56152 -5.37109,0 -8.56934,-3.05176 -3.19824,-3.07617 -3.19824,-8.52051 0,-5.41992 3.05176,-8.8623 3.07617,-3.44238 8.20312,-3.44238 4.29688,0 6.68946,2.58789 2.39258,2.56347 2.39258,7.10449 0,0.68359 -0.0733,1.3916 l -15.47851,0 q 0,5.24902 2.46582,7.51953 2.46582,2.2461 7.71484,2.2461 2.34375,0 5.00488,-0.43946 l 0.14649,1.04981 z m -4.63867,-12.40235 0,-0.73242 q 0,-3.46679 -1.12305,-4.95605 -1.09863,-1.48926 -3.2959,-1.48926 -2.90527,0 -4.44336,2.09961 -1.53808,2.09961 -1.7334,5.07812 l 10.59571,0 z"
           style="font-style:normal;font-variant:normal;font-weight:normal;font-stretch:normal;font-family:Constantia;-inkscape-font-specification:Constantia;word-spacing:0px;fill:#000000"
           id="path5910" />
        <path
           d="m 204.66113,129.85234 q -1.63574,-0.51269 -3.66211,-0.51269 -4.19922,0 -6.39648,2.39258 -2.19727,2.36816 -2.19727,7.20214 0,4.17481 1.95313,6.68946 1.95312,2.49023 5.51758,2.49023 2.29492,0 4.78515,-1.26953 l 0,-16.99219 z m -3.51562,-14.55078 q 4.3457,-0.83008 7.95898,-1.7334 l 0.21973,0.19532 q -0.14649,5.22461 -0.14649,11.23047 l 0,13.28125 q 0,3.36914 0.0244,6.66503 0,1.24512 0.0732,2.00196 0.0977,0.75683 0.43945,1.17187 0.3418,0.39063 1.00098,0.53711 0.68359,0.14649 1.9043,0.1709 l 0.12207,0.95215 q -1.07422,0.41504 -2.58789,0.83008 -1.48926,0.41504 -2.02637,0.41504 -2.46582,0 -3.32031,-2.78321 -3.78418,2.80762 -7.34864,2.80762 -4.5166,0 -7.22656,-3.19824 -2.68555,-3.22266 -2.68555,-7.91016 0,-6.05469 3.58887,-9.375 3.58887,-3.32031 10.03418,-3.32031 1.5625,0 3.49121,0.3418 0,-5.39551 -0.0977,-10.49805 l -3.2959,-0.97656 -0.12207,-0.80567 z"
           style="font-style:normal;font-variant:normal;font-weight:normal;font-stretch:normal;font-family:Constantia;-inkscape-font-specification:Constantia;word-spacing:0px;fill:#000000"
           id="path5912" />
      </g>
      <text
         sodipodi:linespacing="125%"
         id="text4144"
         y="239.9409"
         x="367.87515"
         style="font-style:normal;font-weight:normal;font-size:171.63505554px;line-height:125%;font-family:sans-serif;text-align:start;letter-spacing:0px;word-spacing:0px;text-anchor:start;fill:#000000;fill-opacity:1;stroke:none;stroke-width:1px;stroke-linecap:butt;stroke-linejoin:miter;stroke-opacity:1"
         xml:space="preserve"><tspan
           y="239.9409"
           x="367.87515"
           id="tspan4146"
           sodipodi:role="line" /></text>
      <path
         sodipodi:nodetypes="ccccsc"
         inkscape:connector-curvature="0"
         id="path4156"
         d="M 57.033167,417.59781 C 109.17073,383.96421 324.59394,150.3284 240.18594,67.044781 165.65108,-3.2091487 36.736982,95.130203 36.736982,95.130203 36.52702,115.91776 42.250937,143.4044 47.572337,164.02169 c 0,0 109.502673,-65.938957 136.747943,-58.39892 95.57649,26.45049 -136.542141,330.44964 -127.287113,311.97504 z"
         style="color:#000000;clip-rule:nonzero;display:inline;overflow:visible;visibility:visible;opacity:1;isolation:auto;mix-blend-mode:normal;color-interpolation:sRGB;color-interpolation-filters:linearRGB;solid-color:#000000;solid-opacity:1;fill:#000000;fill-opacity:1;fill-rule:nonzero;stroke:none;stroke-width:0;stroke-linecap:butt;stroke-linejoin:miter;stroke-miterlimit:4;stroke-dasharray:none;stroke-dashoffset:0;stroke-opacity:1;color-rendering:auto;image-rendering:auto;shape-rendering:auto;text-rendering:auto;enable-background:accumulate" />
      <path
         sodipodi:nodetypes="ccccsc"
         inkscape:connector-curvature="0"
         id="path4174"
         d="M 740.36228,281.5969 C 635.45265,254.8594 658.73316,158.62089 730.91912,116.24217 908.61129,19.46372 1154.6994,84.19921 1154.6994,84.19921 l -3.7788,-22.5236 C 1032.0911,61.50556 607.45923,7.2969499 615.15687,184.56057 c 4.75285,109.44992 125.20541,97.03633 125.20541,97.03633 z"
         style="color:#000000;clip-rule:nonzero;display:inline;overflow:visible;visibility:visible;opacity:1;isolation:auto;mix-blend-mode:normal;color-interpolation:sRGB;color-interpolation-filters:linearRGB;solid-color:#000000;solid-opacity:1;fill:#000000;fill-opacity:1;fill-rule:nonzero;stroke:none;stroke-width:0;stroke-linecap:butt;stroke-linejoin:miter;stroke-miterlimit:4;stroke-dasharray:none;stroke-dashoffset:0;stroke-opacity:1;color-rendering:auto;image-rendering:auto;shape-rendering:auto;text-rendering:auto;enable-background:accumulate" />
      <g
         transform="matrix(2.8311304,0,0,2.8311304,520.39913,-143.76869)"
         style="font-style:normal;font-variant:normal;font-weight:normal;font-stretch:normal;font-size:50px;line-height:125%;font-family:'Javanese Text';-inkscape-font-specification:'Javanese Text';text-align:start;letter-spacing:0px;word-spacing:0px;text-anchor:start;fill:#000000;fill-opacity:1;stroke:none;stroke-width:1px;stroke-linecap:butt;stroke-linejoin:miter;stroke-opacity:1"
         id="flowRoot4136-0">
        <path
           d="m 92.844727,139.30059 q -5.34668,0 -7.299805,1.0498 -1.953125,1.04981 -1.953125,3.54004 0,2.31934 1.293945,3.2959 1.293945,0.95215 3.515625,0.95215 2.514649,0 4.394531,-0.8545 l 0.04883,-7.98339 z m -11.840821,-10.0586 q 4.760742,-2.07519 8.422852,-2.07519 3.735351,0 5.810547,1.95312 2.099609,1.95313 2.075195,5.63965 l -0.12207,10.15625 q -0.02441,1.24512 0.04883,2.00195 0.09766,0.75684 0.439453,1.17188 0.366211,0.39062 1.074219,0.56152 0.708007,0.14649 1.9043,0.1709 l 0.12207,0.95215 q -1.049808,0.41504 -2.56348,0.83008 -1.513672,0.41504 -2.050781,0.41504 -2.368164,0 -3.24707,-2.44141 -3.417969,2.46582 -6.445313,2.46582 -3.393554,0 -5.46875,-1.66016 -2.050781,-1.68457 -2.050781,-4.73632 0,-3.75977 3.344727,-5.542 3.36914,-1.78222 10.546875,-1.78222 l 0.02441,-1.9043 q 0.02441,-2.73438 -1.391602,-4.05273 -1.416016,-1.31836 -4.345703,-1.31836 -2.22168,0 -5.566406,0.83007 l -0.561524,-1.63574 z"
           style="font-style:normal;font-variant:normal;font-weight:normal;font-stretch:normal;font-family:Constantia;-inkscape-font-specification:Constantia;word-spacing:0px;fill:#000000"
           id="path5887" />
        <path
           d="m 121.23828,148.21172 q -3.80859,2.83203 -7.61719,2.83203 -3.833,0 -5.76171,-1.95313 -1.9043,-1.95312 -1.9043,-5.49316 l 0,-5.17578 q 0,-5.22461 -0.0977,-7.83691 l -3.24707,-0.87891 -0.12207,-0.83008 q 4.27246,-0.78125 7.91016,-1.70898 l 0.21972,0.1709 q -0.14648,2.85644 -0.14648,7.34863 l 0,7.76367 q 0,2.9541 1.3916,4.29687 1.3916,1.31836 3.93067,1.31836 2.53906,0 5.20019,-1.34277 l 0,-10.40039 q 0,-3.41797 -0.0977,-5.7373 l -3.22265,-0.87891 -0.12207,-0.83008 q 4.24804,-0.78125 7.88574,-1.70898 l 0.21973,0.1709 q -0.14649,2.92968 -0.14649,7.49511 0,8.86231 0.0488,10.81543 0.0244,1.00098 0.14648,1.61133 0.12208,0.61035 0.46387,0.95215 0.3418,0.31738 1.00098,0.46387 0.68359,0.12207 1.80664,0.14648 l 0.12207,0.95215 q -1.12305,0.43945 -2.58789,0.83008 -1.46484,0.41504 -2.00195,0.41504 -2.46582,0 -3.27149,-2.80762 z"
           style="font-style:normal;font-variant:normal;font-weight:normal;font-stretch:normal;font-family:Constantia;-inkscape-font-specification:Constantia;word-spacing:0px;fill:#000000"
           id="path5889" />
        <path
           d="m 144.26074,129.63262 q -1.41601,-0.39063 -3.07617,-0.39063 -2.29492,0 -3.71094,0.90332 -1.3916,0.87891 -1.3916,2.41699 0,1.48926 0.90332,2.34375 0.92774,0.8545 3.41797,1.68457 l 2.00195,0.6836 q 3.36914,1.14746 4.93164,2.63672 1.58692,1.46484 1.58692,3.85742 0,3.39355 -2.63672,5.34668 -2.63672,1.92871 -6.66504,1.92871 -3.71094,0 -7.59277,-1.51367 0.83007,-3.17383 1.34277,-6.20117 l 0.95215,-0.14649 1.75781,5.24903 q 1.3916,0.5371 3.54004,0.5371 2.27051,0 3.61328,-0.92773 1.36719,-0.92773 1.36719,-2.6123 0,-1.5625 -0.92774,-2.46582 -0.90332,-0.90333 -2.90527,-1.5625 l -2.53906,-0.8545 q -3.2959,-1.09863 -4.56543,-2.63672 -1.24512,-1.5625 -1.24512,-3.85742 0,-3.19824 2.41699,-5.02929 2.44141,-1.85547 6.4209,-1.85547 3.71094,0 6.73828,1.07422 -0.68359,2.7832 -1.24511,5.88378 l -0.92774,0.1709 -1.5625,-4.66308 z"
           style="font-style:normal;font-variant:normal;font-weight:normal;font-stretch:normal;font-family:Constantia;-inkscape-font-specification:Constantia;word-spacing:0px;fill:#000000"
           id="path5891" />
        <path
           d="m 169.96875,148.21172 q -3.80859,2.83203 -7.61719,2.83203 -3.83301,0 -5.76172,-1.95313 -1.90429,-1.95312 -1.90429,-5.49316 l 0,-5.17578 q 0,-5.22461 -0.0977,-7.83691 l -3.24707,-0.87891 -0.12207,-0.83008 q 4.27246,-0.78125 7.91016,-1.70898 l 0.21972,0.1709 q -0.14648,2.85644 -0.14648,7.34863 l 0,7.76367 q 0,2.9541 1.3916,4.29687 1.3916,1.31836 3.93066,1.31836 2.53907,0 5.2002,-1.34277 l 0,-10.40039 q 0,-3.41797 -0.0977,-5.7373 l -3.22265,-0.87891 -0.12207,-0.83008 q 4.24804,-0.78125 7.88574,-1.70898 l 0.21973,0.1709 q -0.14649,2.92968 -0.14649,7.49511 0,8.86231 0.0488,10.81543 0.0244,1.00098 0.14648,1.61133 0.12207,0.61035 0.46387,0.95215 0.3418,0.31738 1.00098,0.46387 0.68359,0.12207 1.80664,0.14648 l 0.12207,0.95215 q -1.12305,0.43945 -2.58789,0.83008 -1.46485,0.41504 -2.00196,0.41504 -2.46582,0 -3.27148,-2.80762 z"
           style="font-style:normal;font-variant:normal;font-weight:normal;font-stretch:normal;font-family:Constantia;-inkscape-font-specification:Constantia;word-spacing:0px;fill:#000000"
           id="path5893" />
        <path
           d="m 194.11426,139.30059 q -5.34668,0 -7.29981,1.0498 -1.95312,1.04981 -1.95312,3.54004 0,2.31934 1.29394,3.2959 1.29395,0.95215 3.51563,0.95215 2.51465,0 4.39453,-0.8545 l 0.0488,-7.98339 z m -11.84082,-10.0586 q 4.76074,-2.07519 8.42285,-2.07519 3.73535,0 5.81055,1.95312 2.09961,1.95313 2.07519,5.63965 l -0.12207,10.15625 q -0.0244,1.24512 0.0488,2.00195 0.0977,0.75684 0.43945,1.17188 0.36621,0.39062 1.07422,0.56152 0.70801,0.14649 1.9043,0.1709 l 0.12207,0.95215 q -1.04981,0.41504 -2.56348,0.83008 -1.51367,0.41504 -2.05078,0.41504 -2.36816,0 -3.24707,-2.44141 -3.41797,2.46582 -6.44531,2.46582 -3.39356,0 -5.46875,-1.66016 -2.05078,-1.68457 -2.05078,-4.73632 0,-3.75977 3.34472,-5.542 3.36914,-1.78222 10.54688,-1.78222 l 0.0244,-1.9043 q 0.0244,-2.73438 -1.3916,-4.05273 -1.41602,-1.31836 -4.3457,-1.31836 -2.22168,0 -5.56641,0.83007 l -0.56152,-1.63574 z"
           style="font-style:normal;font-variant:normal;font-weight:normal;font-stretch:normal;font-family:Constantia;-inkscape-font-specification:Constantia;word-spacing:0px;fill:#000000"
           id="path5895" />
        <path
           d="m 204.44141,116.10723 -0.12207,-0.80567 q 4.32128,-0.83008 7.95898,-1.7334 l 0.21973,0.19532 q -0.14649,3.97949 -0.14649,11.05957 l 0,15.89355 q 0,4.37012 0.0488,7.03125 0.0732,0.70801 0.68359,0.87891 l 2.66114,0.80566 0.0732,1.00098 q -3.2959,-0.0732 -5.68848,-0.0732 -2.39258,0 -5.66406,0.0732 l -0.0977,-1.00098 2.75879,-0.80566 q 0.61035,-0.19531 0.65918,-0.78125 0.0488,-2.75879 0.0488,-6.15235 l 0,-10.03418 q 0,-9.08203 -0.0977,-14.57519 l -3.29589,-0.97656 z"
           style="font-style:normal;font-variant:normal;font-weight:normal;font-stretch:normal;font-family:Constantia;-inkscape-font-specification:Constantia;word-spacing:0px;fill:#000000"
           id="path5897" />
        <path
           d="m 240.0127,127.72832 q 3.07617,0.0732 5.46875,0.0732 1.63574,0 5.2246,-0.0732 l 0.0977,1.00098 -2.85644,0.78125 q 0.90332,2.56347 2.0996,5.66406 1.19629,3.07617 2.53907,6.4209 0.56152,1.3916 1.2207,3.19824 0.68359,-1.83105 1.46484,-3.73535 1.14747,-2.83203 2.22168,-5.56641 1.07422,-2.75879 2.22168,-5.98144 l -2.7832,-0.78125 -0.0977,-1.00098 q 1.80664,0.0732 4.22364,0.0732 2.17285,0 4.22363,-0.0732 l 0.12207,1.00098 -2.27051,0.63476 q -0.75683,0.24414 -1.09863,1.00098 -0.90332,2.07519 -1.95313,4.54101 -3.22265,7.56836 -4.88281,12.40235 -1.12304,3.27148 -2.02637,6.68945 -0.90332,3.44238 -1.3916,5.9082 -0.21972,1.19629 -0.90332,1.80665 -0.65918,0.63476 -3.125,0.63476 -2.51465,0 -4.88281,-0.1709 l -0.12207,-0.95215 q 2.68555,-0.41504 3.97949,-1.73339 1.5625,-1.68457 4.83399,-8.95997 l 0.19531,-0.46386 -0.3418,-0.0977 q -4.46777,-11.13281 -8.08105,-19.58008 -0.31739,-0.73242 -1.12305,-1.00097 l -2.14844,-0.65918 -0.0488,-1.00098 z"
           style="font-style:normal;font-variant:normal;font-weight:normal;font-stretch:normal;font-family:Constantia;-inkscape-font-specification:Constantia;word-spacing:0px;fill:#000000"
           id="path5899" />
      </g>
      <path
         sodipodi:nodetypes="cccccccccccc"
         inkscape:connector-curvature="0"
         id="path4234-0-5"
         d="m 1171.3656,218.04332 c -1.8143,-46.07678 0.066,-119.94958 -20.7192,-157.22448 6.3757,43.30569 11.6591,110.6275 4.2769,157.27704 l -23.888,-0.32733 0.1358,9.02692 25.719,0.32527 0.6279,54.92552 12.9803,0.0245 -0.7037,-55.19139 25.8667,-0.38616 -0.1489,-8.35818 z"
         style="fill:#000000;fill-rule:evenodd;stroke:none;stroke-width:1px;stroke-linecap:butt;stroke-linejoin:miter;stroke-opacity:1" />
      <path
         sodipodi:nodetypes="cccssssccccszc"
         inkscape:connector-curvature="0"
         id="path4234-0-9"
         d="M 77.204834,252.17532 C 62.851556,208.41092 34.461461,125.95169 37.308463,94.395392 17.453665,139.89225 51.511788,209.55901 57.362442,256.42526 c 0,0 -18.894179,8.46301 -14.737704,25.69428 2.592556,10.74782 22.289123,9.34579 22.551262,8.34287 0.470672,-1.80075 -0.459058,-5.52758 -0.459058,-5.52758 -4.716825,-0.46739 -11.170056,-0.21065 -11.869596,-6.34183 -0.663904,-5.81884 3.764078,-10.07511 10.942089,-10.40172 l 3.761686,32.46306 22.047236,-5.55634 -11.96693,-30.79191 c 12.382004,-1.08322 18.036562,-7.33257 19.774949,-18.10584 0.895775,-5.55138 -0.202264,-3.98607 -4.842022,1.56918 -4.639759,5.55525 -15.35952,4.40589 -15.35952,4.40589 z"
         style="fill:#000000;fill-rule:evenodd;stroke:none;stroke-width:1px;stroke-linecap:butt;stroke-linejoin:miter;stroke-opacity:1" />
    </g>
  </g>
</svg>
